<mxfile host="app.diagrams.net" modified="2023-06-23T08:51:51.818Z" agent="Mozilla/5.0 (Windows NT 10.0; Win64; x64) AppleWebKit/537.36 (KHTML, like Gecko) Chrome/114.0.0.0 Safari/537.36" version="21.5.0" etag="mrLGaKD5WXkAjNXLXaTa" type="github">
  <diagram name="Page-1" id="Dk36cmayR6n7V2-kM3xU">
    <mxGraphModel>
      <root>
        <mxCell id="0" />
        <mxCell id="1" parent="0" />
      </root>
    </mxGraphModel>
  </diagram>
</mxfile>
